<?xml version="1.0" encoding="UTF-8"?>
<svg version="1.1" xmlns="http://www.w3.org/2000/svg" width="930" height="616">
<path d="M0 0 C306.9 0 613.8 0 930 0 C930 203.28 930 406.56 930 616 C623.1 616 316.2 616 0 616 C0 412.72 0 209.44 0 0 Z " fill="#FDFDFD" transform="translate(0,0)"/>
<path d="M0 0 C2.13085417 0.0008486 4.2617092 0.00036661 6.39256287 -0.00132751 C12.11447482 -0.00217982 17.83619381 0.01532059 23.55806136 0.03639436 C29.56110232 0.05529015 35.56414886 0.05692168 41.56721497 0.06047058 C52.90681709 0.06975344 64.24633128 0.09431579 75.58589488 0.12451905 C90.92886577 0.1644887 106.27186111 0.18054834 121.61487103 0.1980257 C145.74827726 0.22614001 169.88149805 0.28593452 194.01489258 0.34057617 C194.01489258 38.95057617 194.01489258 77.56057617 194.01489258 117.34057617 C133.29489258 117.34057617 72.57489258 117.34057617 10.01489258 117.34057617 C10.01489258 106.12057617 10.01489258 94.90057617 10.01489258 83.34057617 C7.41614258 85.21745117 4.81739258 87.09432617 2.13989258 89.02807617 C0.47583008 90.22989909 -1.18823242 91.43172201 -2.85229492 92.63354492 C-3.70791016 93.25148926 -4.56352539 93.86943359 -5.44506836 94.50610352 C-7.06811523 95.67830404 -8.69116211 96.85050456 -10.31420898 98.02270508 C-11.05380859 98.55686035 -11.7934082 99.09101563 -12.55541992 99.64135742 C-14.03198242 100.70776367 -15.50854492 101.77416992 -16.98510742 102.84057617 C-17.72615723 103.37577881 -18.46720703 103.91098145 -19.23071289 104.46240234 C-22.98217773 107.17179362 -26.73364258 109.8811849 -30.48510742 112.59057617 C-31.22792969 113.12706787 -31.97075195 113.66355957 -32.73608398 114.21630859 C-34.23279443 115.29724808 -35.7295391 116.37814018 -37.22631836 117.45898438 C-41.02693379 120.20355157 -44.8269104 122.94899583 -48.62573242 125.69604492 C-55.95333899 130.99370643 -63.28842936 136.27986719 -70.65136719 141.52832031 C-77.03514513 146.08265132 -83.39124806 150.67520483 -89.74291992 155.27416992 C-92.33521895 157.15089244 -94.932703 159.01962074 -97.53979492 160.87573242 C-98.53237305 161.58600586 -99.52495117 162.2962793 -100.54760742 163.02807617 C-101.39452148 163.63006836 -102.24143555 164.23206055 -103.11401367 164.85229492 C-105.09857189 166.21616761 -105.09857189 166.21616761 -105.98510742 168.34057617 C-105.45143555 168.58163086 -104.91776367 168.82268555 -104.36791992 169.07104492 C-101.34432829 170.68197489 -98.62620104 172.64477859 -95.86010742 174.65307617 C-95.25392578 175.08966553 -94.64774414 175.52625488 -94.02319336 175.97607422 C-92.00850325 177.42816491 -89.99682367 178.884369 -87.98510742 180.34057617 C-86.55560415 181.37208153 -85.12591283 182.40332633 -83.69604492 183.43432617 C-79.89528473 186.17596134 -76.09708688 188.92112419 -72.29956055 191.66723633 C-68.52917725 194.39320754 -64.75709223 197.11682166 -60.98510742 199.84057617 C-56.43735164 203.12451578 -51.89001368 206.40902662 -47.34448242 209.69604492 C-40.56969762 214.59403123 -33.79233332 219.48774352 -26.98510742 224.34057617 C-1.76657074 242.33105863 -1.76657074 242.33105863 5.38598633 248.16870117 C7.12544693 249.5426101 7.12544693 249.5426101 10.01489258 250.34057617 C10.01489258 239.12057617 10.01489258 227.90057617 10.01489258 216.34057617 C59.78100242 216.25518064 109.54711538 216.17530268 159.3132782 216.12886047 C160.41996981 216.12782505 160.41996981 216.12782505 161.54901882 216.1267687 C177.58734592 216.11180049 193.6256738 216.0979501 209.66400285 216.08524952 C217.53039661 216.07901342 225.39679015 216.07253057 233.26318359 216.06591797 C234.04594036 216.06526417 234.82869712 216.06461038 235.63517378 216.06393677 C260.95843153 216.04267013 286.2816331 216.00514374 311.60485688 215.95909007 C337.65069308 215.91180881 363.69649826 215.88112162 389.74237665 215.87100122 C393.43007499 215.86956067 397.11777322 215.86793249 400.80547142 215.86618996 C401.53118815 215.86585284 402.25690488 215.86551573 403.00461303 215.8651684 C414.63711744 215.85928401 426.26952526 215.83615966 437.90199045 215.806416 C449.62657121 215.77681099 461.35104887 215.76617985 473.07566557 215.77306928 C479.41618025 215.77625475 485.75641401 215.77155847 492.09687805 215.7445488 C552.30017564 215.50077049 552.30017564 215.50077049 576.20239258 226.09057617 C577.22228271 226.52104248 578.24217285 226.95150879 579.29296875 227.39501953 C592.67517454 233.16651222 604.69034496 240.12738489 616.01489258 249.34057617 C616.57418457 249.79303711 617.13347656 250.24549805 617.7097168 250.71166992 C649.08109497 276.25878947 669.34580041 311.95217503 674.01489258 352.34057617 C674.17728637 356.22191839 674.20254178 360.10069961 674.21801758 363.98510742 C674.22371765 365.10890305 674.22941772 366.23269867 674.23529053 367.39054871 C674.24471552 369.76833158 674.25126454 372.14612737 674.25512695 374.52392578 C674.2647579 378.10302641 674.29577498 381.68153376 674.32739258 385.26049805 C674.40854428 402.47739661 673.05983684 418.35155181 667.82739258 434.84057617 C667.37565674 436.2859375 667.37565674 436.2859375 666.91479492 437.76049805 C658.58184216 463.66241387 644.63675736 484.75502281 626.01489258 504.34057617 C625.06936523 505.3827832 625.06936523 505.3827832 624.10473633 506.44604492 C599.76058626 532.39530378 560.93837059 549.0980591 525.59939075 550.43173611 C523.1179119 550.4650433 520.63827205 550.46925574 518.15658569 550.46083069 C517.21699151 550.46168511 516.27739732 550.46253954 515.30933058 550.46341985 C512.18951748 550.46505504 509.06975924 550.45958567 505.94995117 550.45410156 C503.70219931 550.45381924 501.45444736 550.4539783 499.20669556 550.45454407 C493.12482894 550.45483028 487.04298215 550.44896191 480.96112013 550.44197011 C474.59766713 550.43570736 468.23421366 550.43513046 461.87075806 550.4339447 C451.19663104 550.43119246 440.52251183 550.42495159 429.84838867 550.41601562 C418.85815466 550.40682464 407.86792263 550.39976354 396.87768555 550.39550781 C396.19237483 550.39523982 395.50706412 550.39497182 394.80098641 550.3946957 C388.83897285 550.39238259 382.87695923 550.39022991 376.9149456 550.38809299 C351.28158778 550.37869774 325.64824917 550.35877306 300.01489258 550.34057617 C300.01489258 511.40057617 300.01489258 472.46057617 300.01489258 432.34057617 C363.04489258 432.34057617 426.07489258 432.34057617 491.01489258 432.34057617 C491.34489258 443.56057617 491.67489258 454.78057617 492.01489258 466.34057617 C494.61364258 464.46370117 497.21239258 462.58682617 499.88989258 460.65307617 C516.76489258 448.46557617 533.63989258 436.27807617 550.51489258 424.09057617 C551.25747314 423.55424561 552.00005371 423.01791504 552.76513672 422.46533203 C554.26423708 421.38269363 555.7634232 420.30017397 557.26269531 419.21777344 C561.02717426 416.49977794 564.79011162 413.77969549 568.55004883 411.05541992 C576.72192416 405.13806735 584.91685688 399.25823451 593.18310547 393.47314453 C597.8649505 390.18764945 602.45725488 386.79619309 607.01489258 383.34057617 C603.80989723 379.97994256 600.67505889 377.27499666 596.76489258 374.77807617 C584.49591743 366.76354417 572.66742125 358.13002458 560.89160156 349.41235352 C556.29558122 346.01196557 551.67858112 342.64748049 547.01489258 339.34057617 C541.55183803 335.46499362 536.15155705 331.50907566 530.76489258 327.52807617 C524.38577649 322.81740355 517.99706905 318.12087261 511.57739258 313.46557617 C510.89322266 312.96695068 510.20905273 312.4683252 509.50415039 311.95458984 C503.44230913 307.57008925 497.25577838 303.50116671 491.01489258 299.34057617 C491.01489258 310.23057617 491.01489258 321.12057617 491.01489258 332.34057617 C442.14221496 332.37471279 393.26953681 332.40666642 344.39685059 332.42526245 C343.3111417 332.42567662 343.3111417 332.42567662 342.20349931 332.42609916 C326.47168924 332.43208555 310.73987904 332.43762583 295.00806865 332.44270683 C287.29273259 332.44520141 279.57739656 332.44779453 271.86206055 332.45043945 C271.0943087 332.45070097 270.32655686 332.45096249 269.53553981 332.45123193 C244.66893956 332.45974836 219.80234842 332.4747663 194.93575368 332.49317061 C169.37331663 332.51205549 143.81088462 332.52435163 118.24844072 332.52840615 C114.63451446 332.52898243 111.02058822 332.5296337 107.40666199 332.53033066 C106.69541826 332.5304655 105.98417453 332.53060035 105.25137796 332.53073928 C93.82130235 332.53309893 82.39124237 332.54236481 70.96117312 332.55424024 C59.45860128 332.56604263 47.95605094 332.57034372 36.45347214 332.56757893 C30.22580259 332.56629931 23.99817875 332.56824634 17.77051735 332.57898712 C12.06171801 332.58876084 6.35299486 332.5891844 0.64419192 332.58237396 C-1.41395415 332.58153294 -3.47210509 332.58403489 -5.53024167 332.59034254 C-51.26318391 332.72227765 -92.02047199 317.33411218 -124.73510742 284.96557617 C-150.98353305 258.30305324 -168.83234064 220.43207348 -169.25854492 182.71948242 C-169.27102768 181.71001053 -169.28351044 180.70053864 -169.29637146 179.66047668 C-169.70793811 138.4466552 -169.70793811 138.4466552 -163.98510742 119.34057617 C-163.61966695 117.98403595 -163.25502444 116.6272804 -162.89135742 115.27026367 C-150.50956225 73.61436706 -119.77158145 38.86399283 -81.98510742 18.34057617 C-56.24422016 4.69604812 -28.87018203 -0.1635971 0 0 Z " fill="#072448" transform="translate(216.985107421875,38.659423828125)"/>
<path d="M0 0 C0.94367774 -0.00170885 1.88735548 -0.0034177 2.85962951 -0.00517833 C5.99332167 -0.00844898 9.12679539 0.00249024 12.26046753 0.01345825 C14.51807144 0.01402289 16.77567572 0.01370478 19.03327942 0.01257324 C25.14202897 0.01200079 31.25069955 0.02373782 37.35943079 0.03772116 C43.75090793 0.05024634 50.14238699 0.05140043 56.53387451 0.05377197 C67.25509257 0.05927654 77.97627621 0.0717584 88.69747925 0.08963013 C99.73621479 0.10801193 110.77494244 0.1221342 121.81369019 0.13064575 C122.5020184 0.13118175 123.19034662 0.13171774 123.89953327 0.13226998 C129.88779243 0.1368962 135.8760518 0.14120155 141.86431122 0.14547539 C167.61081105 0.16426611 193.35723435 0.20411537 219.10372925 0.24050903 C219.10372925 38.85050903 219.10372925 77.46050903 219.10372925 117.24050903 C99.31372925 117.24050903 -20.47627075 117.24050903 -143.89627075 117.24050903 C-139.86012646 93.02364326 -125.52283866 70.11602506 -108.90408325 52.42410278 C-106.83169944 50.22369473 -106.83169944 50.22369473 -104.84939575 47.65847778 C-101.91448279 44.02505554 -98.48292518 41.21535543 -94.89627075 38.24050903 C-93.91787231 37.41293091 -92.93947388 36.58535278 -91.931427 35.73269653 C-71.83073752 19.08601317 -48.00906186 7.852537 -22.45214164 2.75957382 C-20.82605339 2.42933603 -19.20302654 2.08334395 -17.58480847 1.71647847 C-11.64840221 0.41076033 -6.06674546 -0.0410059 0 0 Z " fill="#072448" transform="translate(665.8962707519531,38.759490966796875)"/>
<path d="M0 0 C117.81 0 235.62 0 357 0 C352.24882399 28.50705607 334.63584327 53.61014035 315 74 C314.11634766 74.96099609 314.11634766 74.96099609 313.21484375 75.94140625 C297.69707912 92.37422334 276.26745848 103.91008068 255.125 111.25 C254.46709473 111.48428711 253.80918945 111.71857422 253.13134766 111.95996094 C237.68766564 117.06029089 222.14546296 117.42613414 206.04858398 117.34057617 C203.78994763 117.33972808 201.53131044 117.34020858 199.27267456 117.34190369 C193.19322256 117.34275797 187.11395122 117.32522474 181.03454089 117.30418181 C174.66179513 117.28531973 168.28904439 117.2836571 161.91627502 117.28010559 C151.23687279 117.27186614 140.5575412 117.25317805 129.87817383 117.22631836 C118.88729165 117.19870424 107.89642746 117.17754132 96.90551758 117.16479492 C96.21906534 117.16399093 95.5326131 117.16318694 94.82535928 117.16235858 C88.85250664 117.15541834 82.8796535 117.14896074 76.90680027 117.14255047 C51.27113847 117.11441385 25.63565074 117.05462573 0 117 C0 78.39 0 39.78 0 0 Z " fill="#072448" transform="translate(48,472)"/>
<path d="M0 0 C0.66 0.33 1.32 0.66 2 1 C-4.19718477 8.45915695 -11.10416592 15.197493 -18 22 C-18.99 21.67 -19.98 21.34 -21 21 C-20.54109375 20.55269531 -20.0821875 20.10539062 -19.609375 19.64453125 C-16.94084457 17.01524391 -14.36021767 14.46479699 -12.0625 11.5 C-9.57794161 8.48841407 -6.77250198 6.07622338 -3.8046875 3.55078125 C-1.92288746 1.97318991 -1.92288746 1.97318991 0 0 Z " fill="#172E51" transform="translate(573,75)"/>
<path d="M0 0 C0.99 0.33 1.98 0.66 3 1 C0.03 4.3 -2.94 7.6 -6 11 C-6.66 10.34 -7.32 9.68 -8 9 C-5.36 6.03 -2.72 3.06 0 0 Z " fill="#172F51" transform="translate(91,91)"/>
<path d="M0 0 C0.33 0 0.66 0 1 0 C1.1799928 5.21979128 0.97094808 9.07262981 -1 14 C-3 11 -3 11 -2.75 8.125 C-2.06189923 5.25791346 -1.1882053 2.69326534 0 0 Z " fill="#243C5D" transform="translate(58,143)"/>
<path d="M0 0 C0.66 0.33 1.32 0.66 2 1 C1.071875 1.8971875 1.071875 1.8971875 0.125 2.8125 C-2.13676954 5.00811144 -2.13676954 5.00811144 -4 8 C-6.625 8.1875 -6.625 8.1875 -9 8 C-6.14723863 5.06799526 -3.34920216 2.35684596 0 0 Z " fill="#E0E4EA" transform="translate(131,190)"/>
<path d="M0 0 C0.99 0 1.98 0 3 0 C2.34 3.3 1.68 6.6 1 10 C-1.56687367 6.1496895 -0.83288724 4.41430237 0 0 Z " fill="#193457" transform="translate(53,158)"/>
<path d="M0 0 C3.465 1.98 3.465 1.98 7 4 C7 4.99 7 5.98 7 7 C3.942048 5.26440562 1.36620011 3.61527381 -1 1 C-0.67 0.67 -0.34 0.34 0 0 Z " fill="#142C50" transform="translate(121,214)"/>
<path d="M0 0 C0 0.33 0 0.66 0 1 C-1.62324086 1.22162329 -3.248721 1.42689803 -4.875 1.625 C-6.23238281 1.79902344 -6.23238281 1.79902344 -7.6171875 1.9765625 C-8.40351563 1.98429687 -9.18984375 1.99203125 -10 2 C-10.66 1.34 -11.32 0.68 -12 0 C-7.91556885 -1.53166168 -4.20544343 -0.63081652 0 0 Z " fill="#1A3457" transform="translate(180,44)"/>
<path d="M0 0 C0.66 0.33 1.32 0.66 2 1 C0.75453595 4.73639216 -0.63404953 5.18756513 -4 7 C-4 5.68 -4 4.36 -4 3 C-2 1.25 -2 1.25 0 0 Z " fill="#E9ECEE" transform="translate(790,443)"/>
<path d="M0 0 C0.66 0.33 1.32 0.66 2 1 C1.67 1.99 1.34 2.98 1 4 C-1.5625 5.1875 -1.5625 5.1875 -4 6 C-4 5.01 -4 4.02 -4 3 C-2 1.3125 -2 1.3125 0 0 Z " fill="#E6EAEE" transform="translate(348,558)"/>
<path d="M0 0 C-1 3 -1 3 -3 4 C-4.99960012 4.039992 -7.00047242 4.04346799 -9 4 C-6.43425105 1.43425105 -3.68548192 0 0 0 Z " fill="#1D3559" transform="translate(617,50)"/>
<path d="M0 0 C-0.33 0.99 -0.66 1.98 -1 3 C-2.875 3.8125 -2.875 3.8125 -5 4 C-5.99 3.34 -6.98 2.68 -8 2 C-5.09399739 0.74335022 -3.20395416 0 0 0 Z " fill="#273F61" transform="translate(625,47)"/>
</svg>
